#!OML:ASF \\sashay\E\basketball\basketball\Project 1\Capture day 1\Session 1\Subject.ASF
:FULLY-SPECIFIED
:DEGREES
292
root -32.5285 13.9312 2.58005 -175.359 -40.8576 182.29
lowerback 30.9824 5.95898 -4.15224
upperback 11.0943 4.46666 1.51007
thorax -4.82551 1.22722 2.60769
lowerneck -7.90769 4.47558 -13.7088
upperneck -19.278 7.10254 11.9333
head -5.40048 3.27964 6.00529
rclavicle 7.7526e-015 1.25234e-014
rhumerus -15.0575 -16.5382 -72.4996
rradius 42.9752
rwrist -4.81607
rhand -32.359 41.4911
rfingers 7.12502
rthumb -5.59533 11.5849
lclavicle 7.7526e-015 1.25234e-014
lhumerus -14.9888 -0.483662 77.4887
lradius 29.0239
lwrist 16.0712
lhand -21.2726 17.7617
lfingers 7.12502
lthumb 5.11112 47.6801
rfemur -36.0932 -18.9551 -0.693797
rtibia 58.1002
rfoot -11.3255 -6.77046
rtoes -47.1916
lfemur -46.6598 25.7597 -21.3346
ltibia 77.2867
lfoot -23.9291 -5.76017
ltoes -22.947
293
root -32.5621 13.9491 2.55195 -175.495 -40.9273 182.412
lowerback 30.7517 5.89536 -4.05161
upperback 11.0269 4.46274 1.58706
thorax -4.79715 1.2386 2.64396
lowerneck -7.36511 4.18 -13.7248
upperneck -19.5184 6.74127 12.64
head -5.52489 3.04244 6.25804
rclavicle 7.2954e-014 -6.44062e-014
rhumerus -15.2665 -16.3786 -72.8942
rradius 42.4916
rwrist -2.69655
rhand -31.927 41.7538
rfingers 7.12502
rthumb -5.17828 11.8371
lclavicle 7.2954e-014 -6.44062e-014
lhumerus -14.8766 -2.16263 78.5253
lradius 27.9109
lwrist 14.9073
lhand -19.9051 17.7663
lfingers 7.12502
lthumb 6.43144 47.6487
rfemur -35.5616 -18.4105 -0.886372
rtibia 57.8355
rfoot -10.9373 -6.58813
rtoes -45.5574
lfemur -46.2201 25.6336 -21.1571
ltibia 76.9206
lfoot -23.9344 -4.89279
ltoes -27.0182
294
root -32.5947 13.9745 2.52308 -175.658 -41.1733 182.528
lowerback 30.5902 5.62262 -3.46676
upperback 10.9596 4.29293 1.26611
thorax -4.72215 1.18527 2.01684
lowerneck -6.97591 3.72419 -13.5327
upperneck -19.6318 6.22463 13.834
head -5.55595 2.68498 6.65364
rclavicle -6.98728e-014 3.0911e-014
rhumerus -15.5016 -16.7506 -73.9392
rradius 41.9795
rwrist -0.636943
rhand -31.4788 41.5862
rfingers 7.12502
rthumb -4.74546 11.6594
lclavicle -6.98728e-014 3.0911e-014
lhumerus -14.7083 -4.33194 79.0233
lradius 27.0195
lwrist 14.0408
lhand -18.2712 17.9947
lfingers 7.12502
lthumb 8.00857 47.823
rfemur -35.3062 -18.2896 -0.708835
rtibia 57.6968
rfoot -9.55927 -7.62417
rtoes -47.0665
lfemur -45.6845 25.4244 -20.9354
ltibia 76.4692
lfoot -23.5595 -4.51827
ltoes -30.0068
295
root -32.6262 14.0152 2.49283 -175.604 -41.4145 182.287
lowerback 30.4358 5.51259 -3.71834
upperback 10.8741 4.12438 1.32005
thorax -4.75951 1.11244 2.2814
lowerneck -6.73673 2.8992 -14.1342
upperneck -19.8314 5.25619 15.2985
head -5.53893 2.14404 7.31262
rclavicle 8.24956e-014 -5.10877e-014
rhumerus -15.6071 -16.233 -74.4199
rradius 41.3639
rwrist 1.09475
rhand -31.2173 40.692
rfingers 7.12502
rthumb -4.49295 10.7597
lclavicle 8.24956e-014 -5.10877e-014
lhumerus -14.7976 -5.46133 80.1049
lradius 26.2304
lwrist 12.9799
lhand -16.5425 18.0695
lfingers 7.12502
lthumb 9.67674 47.8272
rfemur -34.7322 -17.9721 -1.10456
rtibia 57.5685
rfoot -9.852 -7.03073
rtoes -43.2438
lfemur -44.9352 25.021 -21.0036
ltibia 75.8586
lfoot -23.5347 -3.58677
ltoes -34.75
296
root -32.6585 14.0573 2.46091 -175.764 -41.5504 182.41
lowerback 30.2401 5.5401 -4.27773
upperback 10.745 4.09765 1.90515
thorax -4.89448 1.09886 3.26472
lowerneck -6.1658 2.69986 -14.549
upperneck -19.8744 5.00441 15.7659
head -5.6216 2.00832 7.55534
rclavicle 2.74323e-014 1.72943e-014
rhumerus -15.7026 -14.9632 -74.2063
rradius 40.7453
rwrist 2.4108
rhand -30.7989 39.8589
rfingers 7.12502
rthumb -4.08891 9.91841
lclavicle 2.74323e-014 1.72943e-014
lhumerus -15.0996 -5.57333 81.8974
lradius 25.4465
lwrist 11.7786
lhand -15.391 17.9712
lfingers 7.12502
lthumb 10.7876 47.6742
rfemur -34.354 -17.8766 -0.954907
rtibia 57.4848
rfoot -9.44467 -7.11144
rtoes -42.6299
lfemur -44.1985 24.8019 -20.7855
ltibia 75.1924
lfoot -23.473 -2.44324
ltoes -39.4606
297
root -32.6945 14.1154 2.42779 -176.073 -41.6531 182.84
lowerback 29.9494 5.41379 -4.30623
upperback 10.645 3.99288 2.06959
thorax -4.8793 1.06123 3.5069
lowerneck -5.75855 2.32485 -14.1919
upperneck -20.1533 4.52154 16.5012
head -5.68782 1.66176 7.77826
rclavicle -5.1684e-015 -1.13307e-014
rhumerus -15.7871 -14.3512 -74.788
rradius 40.176
rwrist 3.70948
rhand -30.1345 39.0064
rfingers 7.12502
rthumb -3.44738 9.05452
lclavicle -5.1684e-015 -1.13307e-014
lhumerus -15.1545 -5.43733 82.8682
lradius 24.7223
lwrist 10.4993
lhand -14.1386 17.9746
lfingers 7.12502
lthumb 11.9954 47.6109
rfemur -33.9898 -17.699 -0.456411
rtibia 57.3056
rfoot -8.8565 -7.53877
rtoes -41.5523
lfemur -43.4925 24.6274 -20.3307
ltibia 74.4177
lfoot -23.4148 -6.05475
ltoes -19.4704
298
root -32.7297 14.167 2.39258 -176.111 -41.8776 182.877
lowerback 29.618 4.96358 -4.18034
upperback 10.6221 3.43916 1.38064
thorax -4.65272 0.81414 2.8646
lowerneck -7.49913 0.684888 -13.6019
upperneck -19.3869 2.51939 18.9886
head -4.77629 0.514418 8.58002
rclavicle 1.95492e-014 -4.97521e-014
rhumerus -15.6255 -14.4874 -76.9437
rradius 39.5465
rwrist 5.3536
rhand -29.3337 37.8668
rfingers 7.12502
rthumb -2.67401 7.90384
lclavicle 1.95492e-014 -4.97521e-014
lhumerus -15.0284 -5.38592 82.3111
lradius 24.272
lwrist 9.84276
lhand -12.5552 18.043
lfingers 7.12502
lthumb 13.5219 47.584
rfemur -33.7031 -17.7318 -0.264837
rtibia 57.1311
rfoot -8.09553 -8.1422
rtoes -40.8327
lfemur -42.8143 24.2365 -20.2144
ltibia 73.6137
lfoot -23.3534 -7.05432
ltoes -10.0774
299
root -32.7648 14.2235 2.35958 -176.169 -42.0912 182.938
lowerback 29.3869 4.68119 -3.50074
upperback 10.5417 3.27173 0.888796
thorax -4.55924 0.767711 1.99116
lowerneck -7.1917 -0.220621 -13.3021
upperneck -19.7951 1.36712 20.417
head -4.71517 -0.214949 9.06658
rclavicle -4.41799e-014 3.58806e-014
rhumerus -15.9196 -15.4553 -78.2014
rradius 39.0774
rwrist 6.8713
rhand -28.1517 36.9191
rfingers 7.12502
rthumb -1.53244 6.94486
lclavicle -4.41799e-014 3.58806e-014
lhumerus -15.0393 -6.7836 82.6062
lradius 24.0874
lwrist 10.4393
lhand -11.7273 18.2387
lfingers 7.12502
lthumb 14.3197 47.7248
rfemur -33.5045 -18.0187 0.0798533
rtibia 57.0654
rfoot -7.29342 -8.7986
rtoes -40.8142
lfemur -42.0874 23.7415 -20.0926
ltibia 72.7664
lfoot -23.4654 -6.80748
ltoes -9.14065
300
root -32.796 14.2773 2.324 -176.409 -42.1722 183.258
lowerback 29.1315 4.41565 -3.38578
upperback 10.4429 3.00666 0.865015
thorax -4.52969 0.655987 1.99084
lowerneck -6.63628 -0.379967 -13.1428
upperneck -19.9816 1.17817 21.2035
head -4.81445 -0.414167 9.33866
rclavicle -3.27001e-014 2.04748e-014
rhumerus -15.9662 -15.5423 -79.0798
rradius 38.4987
rwrist 8.29049
rhand -26.7466 36.0605
rfingers 7.12502
rthumb -0.17533 6.08082
lclavicle -3.27001e-014 2.04748e-014
lhumerus -15.4189 -6.87186 83.3578
lradius 24.1036
lwrist 11.296
lhand -11.406 18.4461
lfingers 7.12502
lthumb 14.6294 47.9101
rfemur -33.3582 -18.1111 0.680017
rtibia 57.0812
rfoot -6.81387 -9.58769
rtoes -39.8495
lfemur -41.3816 23.527 -19.7207
ltibia 71.9427
lfoot -23.5152 -6.6726
ltoes -8.83088
301
root -32.8243 14.3142 2.28679 -176.422 -42.2794 183.226
lowerback 28.9191 4.42876 -3.24514
upperback 10.3583 3.13155 1.24136
thorax -4.54759 0.726864 2.28881
lowerneck -4.91176 -0.309895 -13.6786
upperneck -21.0109 1.28891 21.3022
head -5.45278 -0.4294 9.55701
rclavicle -4.77083e-014 2.31336e-014
rhumerus -16.2814 -16.2047 -78.7038
rradius 38.098
rwrist 9.58432
rhand -25.363 34.7641
rfingers 7.12502
rthumb 1.16098 4.78747
lclavicle -4.77083e-014 2.31336e-014
lhumerus -15.4799 -5.71843 85.1641
lradius 23.8317
lwrist 10.991
lhand -10.8949 18.4317
lfingers 7.12502
lthumb 15.1218 47.8592
rfemur -33.3034 -18.2297 0.938978
rtibia 57.1759
rfoot -6.14852 -10.4577
rtoes -39.9341
lfemur -40.6873 23.4193 -19.6418
ltibia 71.1516
lfoot -23.3611 -5.76201
ltoes -14.927
